<?xml version="1.0" standalone="no"?>
<!DOCTYPE svg PUBLIC "-//W3C//DTD SVG 20010904//EN"
 "http://www.w3.org/TR/2001/REC-SVG-20010904/DTD/svg10.dtd">
<svg version="1.0" xmlns="http://www.w3.org/2000/svg"
 width="514.000000pt" height="161.000000pt" viewBox="0 0 514.000000 161.000000"
 preserveAspectRatio="xMidYMid meet">

<g transform="translate(0.000000,161.000000) scale(0.100000,-0.100000)"
fill="#000000" stroke="none">
<path d="M0 805 l0 -805 2570 0 2570 0 0 805 0 805 -2570 0 -2570 0 0 -805z
m998 555 c3 -17 0 -21 -11 -17 -8 3 -22 0 -31 -6 -18 -14 -30 -67 -15 -67 6 0
7 -6 3 -12 -4 -7 -4 -10 1 -6 4 4 14 3 22 -4 11 -8 12 -7 7 6 -3 9 -1 16 5 16
6 0 11 -9 11 -20 0 -15 -6 -19 -22 -17 -22 2 -23 -1 -26 -100 -1 -57 -7 -103
-12 -103 -35 0 -40 12 -40 106 0 87 -1 94 -20 94 -11 0 -20 6 -20 14 0 8 9 18
20 21 15 5 20 15 20 39 0 22 8 40 27 57 14 13 22 17 18 9 -8 -13 -6 -13 8 -2
9 8 22 10 28 6 8 -5 9 -3 4 6 -5 8 -3 11 6 8 8 -3 16 -15 17 -28z m622 -154
l0 -172 -25 -2 -25 -2 0 174 0 174 25 0 25 0 0 -172z m828 136 c-2 -8 -11 -16
-20 -18 -21 -3 -24 12 -5 20 6 3 2 3 -10 0 -27 -6 -30 4 -6 22 21 15 46 0 41
-24z m882 23 c0 6 4 4 9 -4 13 -20 2 -41 -20 -41 -25 0 -35 26 -19 46 11 12
15 12 21 2 5 -7 9 -8 9 -3z m-1360 -5 c0 -5 7 -6 17 -3 11 4 14 3 9 -5 -4 -7
-2 -10 6 -7 23 8 68 -42 68 -74 0 -22 -41 -11 -50 14 -5 14 -14 25 -20 25 -6
0 -9 3 -7 8 3 4 -15 7 -39 8 -24 0 -44 -3 -44 -8 0 -4 -7 -8 -17 -8 -9 0 -13
-3 -10 -7 4 -3 2 -12 -4 -19 -16 -19 -23 -118 -11 -153 11 -30 6 -37 -21 -32
-5 1 -6 -3 -2 -9 3 -6 10 -8 15 -5 13 8 71 -20 63 -30 -5 -5 -1 -5 7 1 19 13
62 16 55 4 -3 -6 1 -7 10 -3 13 5 14 7 3 14 -12 8 -4 13 14 10 4 0 5 6 2 14
-4 8 -1 15 6 15 6 0 8 5 5 10 -4 6 5 10 19 10 16 0 26 -6 26 -15 0 -8 -5 -15
-11 -15 -5 0 -8 -4 -5 -9 8 -12 -19 -33 -29 -23 -5 4 -5 2 -2 -4 10 -17 -19
-37 -43 -31 -11 3 -18 2 -15 -2 2 -5 -9 -8 -25 -9 -17 0 -30 3 -30 8 0 5 -6 7
-14 4 -22 -9 -74 60 -81 108 -11 78 10 178 34 163 5 -2 8 2 7 11 0 9 10 23 24
32 18 13 22 13 15 3 -6 -11 -2 -10 16 2 26 19 59 23 59 7z m-1493 -14 c5 -5 2
-6 -6 -1 -9 5 -12 4 -8 -3 4 -5 15 -8 25 -5 57 15 63 -120 7 -161 -16 -12 -16
-15 -1 -44 19 -37 20 -46 4 -36 -7 4 -8 3 -4 -5 4 -6 11 -9 16 -6 11 7 33 -32
25 -45 -14 -22 -44 -9 -63 29 -16 29 -18 41 -9 50 9 9 8 11 -5 6 -13 -5 -16
-2 -13 14 2 11 -1 24 -7 27 -6 4 -8 3 -5 -3 9 -14 -44 -14 -62 1 -12 9 -13 8
-6 -3 6 -10 4 -13 -6 -9 -11 4 -13 -6 -11 -58 4 -63 3 -64 -22 -64 l-26 0 0
141 c0 130 1 141 18 135 15 -5 15 -4 -2 8 -10 8 -16 22 -13 30 4 11 24 14 85
13 44 -1 84 -6 89 -11z m290 -92 c22 -21 24 -25 9 -22 -11 1 -21 -4 -23 -12
-3 -11 -2 -12 4 -3 7 10 13 10 29 -3 14 -11 16 -17 6 -21 -10 -4 -10 -8 -1
-19 9 -11 8 -14 -4 -14 -9 0 -18 -4 -21 -9 -4 -5 2 -7 12 -4 17 4 19 -2 21
-56 1 -54 -1 -61 -18 -61 -11 0 -21 6 -24 13 -3 9 -11 9 -33 -3 -32 -17 -47
-18 -82 -6 -17 6 -21 13 -17 29 5 17 4 19 -4 7 -6 -8 -11 -13 -12 -10 -8 49
-6 63 12 81 11 11 27 18 35 15 10 -4 12 -2 8 6 -5 8 8 9 47 6 30 -3 48 -3 41
-1 -6 3 -10 9 -7 13 8 13 -6 61 -15 55 -5 -3 -11 -1 -15 4 -3 5 3 14 12 20 10
6 14 11 10 11 -4 0 -21 -10 -36 -21 -16 -12 -34 -19 -39 -15 -6 3 -14 1 -18
-5 -4 -8 -3 -9 4 -5 7 4 12 2 12 -4 0 -6 -10 -10 -22 -8 -34 5 -28 28 12 49
48 26 84 24 117 -7z m347 14 c-6 -10 -5 -10 8 0 22 17 76 4 94 -23 11 -17 14
-48 13 -119 -2 -81 -5 -96 -19 -96 -9 0 -21 5 -28 12 -8 8 -15 8 -25 0 -8 -7
-17 -9 -20 -5 -4 3 -7 2 -7 -3 0 -5 -9 -10 -19 -10 -11 0 -17 4 -14 9 3 5 -1
7 -8 6 -21 -3 -50 12 -43 22 3 5 10 6 16 3 7 -4 8 -2 4 4 -4 6 -14 8 -23 5
-14 -5 -15 -1 -10 27 8 36 34 62 55 55 8 -3 10 0 6 6 -4 8 8 10 40 8 25 -2 46
0 46 4 0 5 4 6 9 3 4 -3 1 10 -7 29 -18 40 -57 55 -76 29 -15 -19 -69 -29 -63
-11 3 11 64 57 74 57 2 0 1 -6 -3 -12z m336 -5 c14 -7 21 -13 15 -14 -5 0 -1
-4 9 -8 19 -7 23 -17 33 -77 l5 -31 -82 -1 c-45 -1 -87 -6 -94 -11 -7 -6 -17
-7 -21 -3 -5 4 -5 1 -1 -6 6 -11 11 -11 24 0 13 11 15 11 10 -4 -5 -11 2 -20
23 -28 17 -7 26 -17 22 -24 -5 -7 -2 -7 8 1 18 15 88 21 89 8 1 -5 -4 -11 -11
-14 -7 -2 -9 1 -4 9 6 9 4 11 -4 6 -7 -5 -10 -14 -7 -22 3 -8 -1 -15 -12 -15
-9 -1 -28 -3 -42 -4 -14 -1 -28 2 -31 7 -3 5 -13 10 -21 12 -17 2 -55 36 -41
36 4 0 1 5 -7 10 -18 11 -20 112 -2 118 7 2 9 8 6 14 -4 6 2 5 15 -1 11 -7 21
-10 22 -9 6 24 5 37 -2 32 -5 -3 -6 -10 -3 -16 5 -7 2 -8 -6 -3 -10 6 -7 14
13 31 29 25 58 27 97 7z m819 6 c36 -13 51 -35 51 -77 0 -20 -7 -32 -22 -39
-19 -8 -20 -10 -4 -16 10 -4 15 -3 11 3 -3 6 -1 10 4 10 6 0 11 -20 11 -44 0
-24 3 -51 6 -59 4 -11 -1 -15 -20 -13 -14 0 -26 4 -26 7 0 4 -9 9 -20 12 -11
3 -18 1 -15 -3 3 -5 -2 -13 -12 -18 -24 -11 -66 -7 -71 7 -2 6 -7 9 -12 6 -4
-3 -13 9 -20 25 -10 25 -10 34 4 55 21 33 42 41 97 41 44 -1 45 0 45 29 -1 30
-25 51 -55 46 -8 -1 -10 3 -6 11 3 7 -3 1 -15 -14 -20 -26 -70 -40 -70 -20 0
15 36 42 60 47 12 2 25 7 28 10 8 7 15 6 51 -6z m387 -9 c16 -13 17 -13 9 0
-4 8 4 4 18 -9 33 -30 36 -52 5 -25 l-23 19 23 -26 c24 -27 30 -69 10 -69 -10
0 -10 -2 -2 -8 7 -4 13 -30 15 -58 4 -46 2 -50 -19 -52 -12 -1 -25 5 -29 13
-4 12 -8 13 -19 4 -23 -19 -27 -3 -6 17 24 23 29 41 18 72 -5 16 -11 20 -19
13 -7 -5 -23 -11 -36 -13 -35 -5 -48 -31 -32 -61 9 -16 19 -23 31 -20 13 3 18
0 16 -11 -1 -8 -5 -18 -9 -22 -10 -10 -59 5 -52 16 3 5 -1 7 -9 4 -31 -12 -42
48 -17 95 13 23 84 37 128 26 23 -5 25 -4 14 9 -7 9 -11 22 -7 31 11 30 -60
47 -87 21 -14 -14 -57 -18 -57 -6 0 4 11 17 25 30 14 13 25 20 25 16 0 -4 8
-3 18 3 22 12 45 9 68 -9z m534 -7 c23 -21 32 -40 37 -76 l6 -48 -77 2 c-42 1
-79 -1 -82 -3 -3 -3 -2 -18 2 -32 3 -15 9 -24 12 -21 3 3 14 -3 25 -12 11 -10
17 -12 13 -5 -5 8 3 12 28 14 20 0 42 1 49 2 6 1 12 -5 12 -13 0 -18 -70 -45
-93 -36 -9 4 -25 9 -35 10 -27 3 -51 31 -41 47 10 16 15 42 6 33 -4 -4 -7 -11
-7 -16 0 -5 -4 -9 -10 -9 -6 0 -10 28 -10 63 0 34 4 62 10 62 14 1 52 24 40
25 -6 0 -16 -5 -23 -12 -8 -8 -12 -8 -12 -1 0 14 25 34 33 26 4 -3 7 0 7 7 0
10 5 9 18 -3 15 -14 19 -15 19 -2 0 8 -4 12 -9 9 -4 -3 -8 0 -8 5 0 22 60 11
90 -16z m350 2 c0 -30 -24 -43 -46 -24 -14 12 -14 15 6 31 30 24 40 23 40 -7z
m199 10 c6 -3 8 -11 5 -17 -4 -7 -2 -8 4 -4 20 12 32 -40 32 -132 0 -60 -3
-82 -10 -72 -6 10 -10 11 -10 3 0 -15 -27 -17 -32 -3 -2 6 -19 4 -45 -6 -39
-16 -44 -16 -67 0 -14 9 -29 28 -32 43 -9 32 15 79 39 77 9 -1 15 1 13 5 -3 4
14 8 36 8 48 2 62 13 53 42 -10 33 -38 43 -74 28 -17 -7 -28 -16 -24 -20 3 -4
-3 -7 -15 -7 -12 0 -22 4 -22 8 0 13 23 38 45 50 20 11 85 9 104 -3z m-1290
-138 c0 -105 -4 -148 -16 -170 -11 -22 -18 -26 -26 -18 -6 6 -16 11 -21 11 -6
0 -5 -4 3 -9 11 -7 9 -10 -8 -16 -26 -8 -41 1 -41 26 0 14 7 19 24 19 14 0 27
4 30 8 3 5 6 71 7 148 l1 139 24 1 24 2 -1 -141z m394 129 c-3 -6 0 -5 8 2 7
6 30 12 51 12 24 0 38 -5 38 -12 0 -9 4 -8 10 2 8 13 10 12 10 -3 0 -22 -40
-78 -51 -71 -5 3 -7 -1 -4 -8 3 -7 -13 -33 -35 -58 l-40 -45 69 -3 c62 -3 70
-5 68 -22 -1 -18 -9 -20 -99 -20 -82 0 -98 3 -98 16 0 8 4 12 10 9 5 -3 7 0 4
8 -3 8 2 17 11 21 9 3 13 2 10 -4 -3 -6 -4 -10 -1 -10 3 0 10 10 17 21 9 17 8
20 -3 13 -8 -5 -7 0 4 16 9 14 22 24 28 22 6 -1 9 2 5 8 -3 6 3 22 14 36 34
43 28 51 -34 46 -49 -4 -55 -2 -55 14 0 15 8 19 35 20 22 0 32 -3 28 -10z
m467 2 c0 6 6 12 14 12 12 0 14 -22 13 -117 -2 -111 -3 -118 -22 -118 -19 0
-20 7 -22 120 -1 75 2 114 7 105 7 -10 10 -11 10 -2z m146 5 c-3 -3 3 -13 15
-21 15 -10 18 -17 10 -25 -6 -6 -11 -49 -11 -99 0 -87 0 -88 -25 -88 l-26 0 2
118 c1 111 2 118 21 119 11 1 18 -1 14 -4z m1398 -9 c9 -3 16 -11 16 -16 0 -6
-7 -5 -15 2 -13 11 -14 10 -9 -4 3 -9 10 -16 16 -16 11 0 9 -384 -2 -415 -9
-23 8 -22 -207 -23 l-173 -2 0 -55 c0 -37 4 -55 13 -56 6 -1 37 -2 67 -3 42
-1 55 -5 55 -16 0 -12 -20 -15 -110 -17 -60 -1 -121 -2 -134 -3 -20 0 -21 -2
-11 -15 7 -8 9 -15 5 -15 -4 0 -3 -6 3 -13 11 -13 10 -61 -3 -92 -12 -29 -46
-65 -62 -65 -26 0 -3 -19 37 -31 22 -7 37 -16 34 -21 -3 -5 5 -6 19 -3 16 4
30 1 41 -10 10 -10 16 -12 16 -4 0 8 4 8 15 -1 12 -10 15 -37 14 -131 l-1
-118 -149 0 c-119 1 -149 4 -149 15 0 7 -11 21 -25 30 -14 9 -22 20 -19 25 3
5 0 9 -5 9 -15 0 -80 72 -81 88 0 7 -4 11 -9 8 -5 -3 -14 1 -21 9 -7 8 -9 15
-5 15 4 0 -3 9 -16 20 l-24 20 24 20 c39 34 108 23 131 -20 10 -18 9 -19 -15
-8 -14 6 -25 14 -25 18 0 4 -9 10 -20 13 -13 3 -18 1 -13 -6 4 -6 -1 -8 -14
-5 -12 3 -26 2 -33 -2 -9 -6 2 -24 40 -64 29 -31 50 -56 47 -56 -4 0 17 -23
46 -51 l52 -51 123 1 c67 1 128 4 135 6 9 4 11 32 9 99 -4 100 -2 97 -60 111
-128 32 -124 26 -119 135 2 36 -1 73 -7 82 -9 15 -13 15 -38 2 -22 -11 -27
-20 -23 -35 4 -11 2 -19 -4 -19 -17 0 -13 47 5 64 18 18 38 20 63 6 14 -7 18
-21 17 -64 -1 -64 11 -76 44 -41 30 32 30 81 1 128 -12 20 -25 37 -27 37 -3 0
-2 -4 1 -10 3 -5 1 -10 -4 -10 -6 0 -11 5 -11 10 0 6 -23 10 -51 10 -36 0 -49
4 -46 13 2 8 21 11 53 10 128 -5 175 -5 179 -1 5 5 9 53 6 83 0 11 -10 26 -22
33 -12 8 -18 9 -14 3 7 -12 -320 -16 -349 -5 -14 5 -16 35 -16 230 0 196 2
224 16 224 8 0 13 4 10 9 -6 9 762 15 788 5z m-4720 -579 c-4 -8 -8 -15 -10
-15 -2 0 -4 7 -4 15 0 8 4 15 10 15 5 0 7 -7 4 -15z m110 7 c3 -5 -8 -6 -25
-4 -16 2 -29 6 -29 8 0 8 49 4 54 -4z m2389 1 c-18 -2 -48 -2 -65 0 -18 2 -4
4 32 4 36 0 50 -2 33 -4z m1528 -74 c-34 -33 -41 -28 -14 11 21 31 37 42 41
30 2 -6 -10 -24 -27 -41z m-4034 -26 c-2 -16 -4 -5 -4 22 0 28 2 40 4 28 2
-13 2 -35 0 -50z m313 33 c0 -2 -9 -6 -20 -9 -11 -3 -18 -1 -14 4 5 9 34 13
34 5z m115 -3 c-11 -3 -31 -15 -45 -26 l-25 -22 24 28 c14 15 34 26 45 26 20
-1 20 -1 1 -6z m445 3 c0 -2 -7 -7 -16 -10 -8 -3 -12 -2 -9 4 6 10 25 14 25 6z
m130 0 c0 -2 -11 -6 -25 -8 -13 -3 -22 -1 -19 3 5 9 44 13 44 5z m217 -2 c-3
-3 -12 -4 -19 -1 -8 3 -5 6 6 6 11 1 17 -2 13 -5z m44 -11 c13 -17 13 -17 -6
-3 -11 8 -22 16 -24 17 -2 2 0 3 6 3 6 0 17 -8 24 -17z m306 11 c-3 -3 -12 -4
-19 -1 -8 3 -5 6 6 6 11 1 17 -2 13 -5z m1636 -1 c-7 -2 -19 -2 -25 0 -7 3 -2
5 12 5 14 0 19 -2 13 -5z m-2959 -18 c3 -8 1 -15 -4 -15 -6 0 -10 7 -10 15 0
8 2 15 4 15 2 0 6 -7 10 -15z m1479 -5 c-10 -11 -19 -20 -21 -20 -1 0 2 9 8
20 6 11 15 20 20 20 6 0 2 -9 -7 -20z m429 -27 c-4 -55 -12 -54 -12 2 0 27 3
45 7 41 4 -4 6 -23 5 -43z m-1341 -50 c-1 -43 -5 -80 -7 -83 -3 -2 -4 35 -3
83 1 48 4 85 7 82 3 -2 4 -40 3 -82z m1919 7 c0 -44 -3 -80 -7 -80 -5 0 -7 36
-5 80 2 44 5 80 8 80 2 0 4 -36 4 -80z m-2570 57 c0 -2 -10 -12 -22 -23 l-23
-19 19 23 c18 21 26 27 26 19z m1130 -1 c0 -3 -4 -8 -10 -11 -5 -3 -10 -1 -10
4 0 6 5 11 10 11 6 0 10 -2 10 -4z m2739 -89 c6 -8 20 -17 30 -20 16 -4 18 0
15 19 -2 13 -1 24 4 24 5 0 9 -48 10 -107 2 -74 -1 -103 -8 -93 -5 8 -10 10
-10 3 0 -12 -54 -12 -66 0 -7 7 1 9 41 11 17 1 21 9 23 49 3 42 0 50 -26 72
-32 27 -59 95 -46 116 6 10 10 3 15 -23 3 -20 11 -43 18 -51z m-1536 66 c-13
-2 -33 -2 -45 0 -13 2 -3 4 22 4 25 0 35 -2 23 -4z m508 -10 c13 -16 12 -17
-3 -4 -17 13 -22 21 -14 21 2 0 10 -8 17 -17z m-2912 -9 c2 -2 -16 -4 -42 -4
l-46 0 -4 -47 c-3 -46 -4 -45 -4 8 l0 56 46 -5 c25 -2 48 -6 50 -8z m148 -61
c-2 -16 -4 -3 -4 27 0 30 2 43 4 28 2 -16 2 -40 0 -55z m1040 -15 c-2 -18 -4
-6 -4 27 0 33 2 48 4 33 2 -15 2 -42 0 -60z m800 50 c-3 -7 -5 -2 -5 12 0 14
2 19 5 13 2 -7 2 -19 0 -25z m1440 0 c-3 -7 -5 -2 -5 12 0 14 2 19 5 13 2 -7
2 -19 0 -25z m-2484 15 c-7 -2 -19 -2 -25 0 -7 3 -2 5 12 5 14 0 19 -2 13 -5z
m2365 0 c-10 -2 -26 -2 -35 0 -10 3 -2 5 17 5 19 0 27 -2 18 -5z m-2438 -7 c0
-2 -7 -7 -16 -10 -8 -3 -12 -2 -9 4 6 10 25 14 25 6z m2117 -2 c-3 -3 -12 -4
-19 -1 -8 3 -5 6 6 6 11 1 17 -2 13 -5z m-2020 -56 c-3 -8 -6 -5 -6 6 -1 11 2
17 5 13 3 -3 4 -12 1 -19z m1090 -20 c-3 -8 -6 -5 -6 6 -1 11 2 17 5 13 3 -3
4 -12 1 -19z m-403 -17 c-2 -3 -12 3 -22 13 -16 17 -16 18 5 5 12 -7 20 -15
17 -18z m1357 15 c-15 -18 -46 -26 -62 -15 -10 6 -4 9 18 9 17 0 35 5 38 10 3
6 9 10 12 10 3 0 0 -6 -6 -14z m476 -6 c13 0 23 -5 23 -11 0 -13 -41 -2 -58
17 -7 9 -8 10 0 4 7 -6 22 -10 35 -10z m-2952 -8 c-3 -3 -11 0 -18 7 -9 10 -8
11 6 5 10 -3 15 -9 12 -12z m890 8 c3 -5 2 -10 -4 -10 -5 0 -13 5 -16 10 -3 6
-2 10 4 10 5 0 13 -4 16 -10z m-1063 -11 c-13 -5 -30 -5 -38 -1 -9 5 -1 8 23
9 33 1 35 0 15 -8z m228 7 c0 -2 -9 -6 -20 -9 -11 -3 -20 -1 -20 4 0 5 9 9 20
9 11 0 20 -2 20 -4z m330 0 c0 -2 -9 -6 -20 -9 -11 -3 -20 -1 -20 4 0 5 9 9
20 9 11 0 20 -2 20 -4z m570 0 c0 -2 -11 -6 -25 -8 -13 -3 -22 -1 -19 3 5 9
44 13 44 5z m220 0 c0 -2 -9 -6 -20 -9 -11 -3 -20 -1 -20 4 0 5 9 9 20 9 11 0
20 -2 20 -4z m200 -5 c0 -5 -9 -7 -20 -4 -11 3 -20 7 -20 9 0 2 9 4 20 4 11 0
20 -4 20 -9z m673 -1 c-14 -6 -32 -6 -45 0 -19 7 -15 9 22 9 37 0 41 -2 23 -9z
m697 1 c0 -5 -9 -7 -20 -4 -11 3 -20 7 -20 9 0 2 9 4 20 4 11 0 20 -4 20 -9z
m-2674 -70 c-9 -14 -56 -19 -63 -7 -3 6 -3 8 1 5 4 -4 19 -3 34 1 15 5 28 9
30 9 2 1 1 -3 -2 -8z"/>
<path d="M906 1308 c3 -5 10 -6 15 -3 13 9 11 12 -6 12 -8 0 -12 -4 -9 -9z"/>
<path d="M3305 1350 c-3 -5 -1 -10 4 -10 6 0 11 5 11 10 0 6 -2 10 -4 10 -3 0
-8 -4 -11 -10z"/>
<path d="M2030 1311 c0 -6 4 -13 10 -16 6 -3 7 1 4 9 -7 18 -14 21 -14 7z"/>
<path d="M1880 1066 c0 -2 7 -7 16 -10 8 -3 12 -2 9 4 -6 10 -25 14 -25 6z"/>
<path d="M355 1313 c-3 -8 -5 -37 -5 -64 0 -48 5 -54 39 -50 7 2 10 -2 7 -8
-4 -5 -2 -13 4 -16 6 -4 9 -1 8 6 -2 6 10 15 26 20 43 12 69 44 56 68 -13 26
-13 34 2 25 7 -4 8 -3 4 5 -4 6 -12 9 -17 6 -5 -4 -9 -1 -9 5 0 6 -3 9 -7 7
-5 -3 -29 -2 -55 2 -36 6 -48 4 -53 -6z"/>
<path d="M680 1260 c-9 -6 -10 -10 -3 -10 6 0 15 5 18 10 8 12 4 12 -15 0z"/>
<path d="M705 1142 c-46 -6 -65 -28 -54 -61 7 -21 16 -27 38 -26 16 0 27 3 25
7 -2 3 5 9 16 13 11 3 20 13 20 20 0 8 8 19 18 25 11 8 12 10 2 7 -8 -2 -19 1
-25 7 -5 7 -23 10 -40 8z"/>
<path d="M1060 1229 c0 -5 5 -7 10 -4 6 3 10 8 10 11 0 2 -4 4 -10 4 -5 0 -10
-5 -10 -11z"/>
<path d="M1135 1150 c-4 -6 -10 -8 -15 -5 -5 3 -15 -4 -23 -15 -7 -11 -16 -18
-19 -15 -2 3 -4 -5 -3 -17 1 -15 12 -27 32 -35 27 -11 34 -10 57 8 16 13 23
25 19 36 -4 11 -2 14 5 9 8 -5 10 -2 6 8 -6 16 -17 20 -43 17 -7 -2 -10 2 -6
8 3 6 4 11 1 11 -3 0 -8 -5 -11 -10z"/>
<path d="M1400 1232 c-34 -5 -50 -20 -50 -46 0 -19 5 -21 48 -21 29 0 54 6 63
15 14 13 12 17 -10 35 -16 12 -36 19 -51 17z"/>
<path d="M2186 1141 c2 -3 -3 -15 -11 -27 -14 -21 -13 -24 7 -39 45 -31 98 -6
91 42 -4 27 -8 29 -48 28 -24 0 -41 -2 -39 -4z"/>
<path d="M2547 1243 c-10 -10 -8 -23 4 -23 5 0 8 4 5 9 -4 5 0 12 6 14 7 3 8
6 2 6 -6 1 -14 -2 -17 -6z"/>
<path d="M3102 1229 c-12 -5 -22 -13 -22 -19 0 -6 -4 -9 -9 -6 -5 4 -7 -3 -4
-14 4 -15 14 -20 44 -21 22 -1 45 -2 51 -3 17 -1 22 32 8 48 -15 19 -42 25
-68 15z"/>
<path d="M3186 1062 c-3 -5 1 -9 9 -9 8 0 12 4 9 9 -3 4 -7 8 -9 8 -2 0 -6 -4
-9 -8z"/>
<path d="M3502 1251 c4 -13 18 -16 19 -4 0 4 -5 9 -11 12 -7 2 -11 -2 -8 -8z"/>
<path d="M3650 1259 c0 -5 5 -7 10 -4 6 3 10 8 10 11 0 2 -4 4 -10 4 -5 0 -10
-5 -10 -11z"/>
<path d="M3690 1259 c0 -5 5 -7 10 -4 6 3 10 8 10 11 0 2 -4 4 -10 4 -5 0 -10
-5 -10 -11z"/>
<path d="M3740 1211 c0 -6 4 -13 10 -16 6 -3 7 1 4 9 -7 18 -14 21 -14 7z"/>
<path d="M3686 1153 c-4 -4 -15 -8 -24 -8 -9 0 -23 -13 -30 -29 -12 -24 -12
-30 1 -43 23 -23 60 -21 80 4 23 29 19 69 -7 65 -11 -2 -15 1 -11 7 7 13 2 15
-9 4z"/>
<path d="M3744 1099 c-3 -6 -2 -15 3 -20 5 -5 9 -1 9 11 0 23 -2 24 -12 9z"/>
<path d="M4083 1215 c-2 -6 -2 -98 -1 -204 l3 -193 158 1 c108 1 163 -2 173
-10 8 -6 14 -7 14 -2 0 13 368 17 384 4 8 -7 12 -5 13 7 1 9 2 22 3 27 1 6 2
92 1 192 l-1 183 -371 2 c-248 2 -373 0 -376 -7z m434 -58 c6 -7 0 -23 -23
-55 -12 -16 -13 -22 -4 -20 7 2 16 -8 20 -22 7 -24 5 -26 -24 -23 -17 2 -43 4
-58 4 -23 0 -28 5 -28 25 0 13 5 24 10 24 6 0 10 7 10 15 0 19 -34 20 -49 2
-6 -8 -12 -22 -14 -33 -2 -10 -8 -29 -15 -40 -9 -18 -9 -24 4 -34 9 -8 13 -24
10 -42 -3 -19 0 -28 10 -29 8 -1 22 -2 31 -3 9 0 18 5 21 12 2 6 -1 12 -7 12
-6 0 -11 14 -11 32 0 17 3 28 7 25 3 -4 12 -2 19 4 8 7 14 7 19 -1 3 -5 1 -10
-4 -10 -6 0 -11 -5 -11 -11 0 -7 10 -5 26 6 19 12 29 14 39 5 10 -8 14 -8 18
2 4 9 6 9 6 1 1 -6 -3 -14 -9 -18 -5 -3 -6 -13 -3 -22 5 -13 2 -15 -15 -11
-15 4 -20 3 -15 -5 14 -21 11 -69 -4 -74 -21 -8 -93 16 -100 33 -3 7 -9 12
-13 9 -11 -7 -50 76 -50 107 0 35 10 59 21 52 5 -3 6 2 3 10 -3 9 -1 16 6 16
6 0 9 4 5 9 -5 9 34 41 65 54 17 7 98 2 107 -6z m49 -53 c-3 -8 -2 -12 4 -9
17 10 32 -36 27 -85 -6 -53 -14 -73 -27 -65 -5 3 -12 0 -16 -6 -4 -8 -3 -9 4
-5 17 10 15 -3 -2 -20 -11 -11 -16 -11 -19 -1 -3 7 -6 4 -6 -6 -1 -10 -5 -15
-11 -12 -5 3 -10 1 -10 -6 0 -20 -14 -1 -15 21 -1 15 5 20 21 20 23 0 45 26
37 45 -2 6 5 20 16 31 18 20 18 21 0 32 -12 8 -19 24 -19 41 0 17 -6 31 -16
35 -8 3 -12 10 -9 16 10 16 48 -9 41 -26z"/>
<path d="M4427 949 c4 -13 8 -18 11 -10 2 7 -1 18 -6 23 -8 8 -9 4 -5 -13z"/>
<path d="M4478 793 c7 -3 16 -2 19 1 4 3 -2 6 -13 5 -11 0 -14 -3 -6 -6z"/>
<path d="M4438 123 c6 -2 18 -2 25 0 6 3 1 5 -13 5 -14 0 -19 -2 -12 -5z"/>
</g>
</svg>
